:SAMPLES-PER-SECOND 30
:FULLY-SPECIFIED
:DEGREES
290
root  34.79549378 36.54654796 -14.43538065 8.234743118 -3.366116285 3.141428471
lowerback  -8.139100075 -0.6908320189 -1.039730191
upperback  -3.880110025 -0.3558650017 -3.579349995
thorax  0.5356019735 -0.006154899951 -3.140799999
lowerneck  -7.900370121 -13.09090042 -10.19519997
upperneck  12.13860035 -17.82910156 10.88619995
head  6.914871693 -8.284599304 3.340744734
lclavicle  0 -4.497500157e-015 -2.743230041e-014
lhumerus  -47.97050095 30.62960052 63.20050049
lradius  -0.05609725788 -6.507048965e-006 30.27260208
lwrist  3.192251654e-007 -3.790274832e-007 -27.5265007
lhand  -4.391407539e-031 -36.47669983 -10.60540009
lfingers  90 7.125020027 -90
lthumb  94.60356775 -25.45724557 100.6101567
rclavicle  0 -4.497500157e-015 -2.743230041e-014
rhumerus  -55.19760132 -28.00130272 -49.07189941
rradius  -5.16745672e-007 2.214343908e-008 85.50589752
rwrist  0.0003490542294 -0.002273720223 -176.2400055
rhand  -0 3.684380054 -4.708909988
rfingers  -90 -7.125020027 -90
rthumb  -83.81974998 -10.94074755 -60.2932657
rfemur  -9.898181915 15.64458275 13.53869724
rtibia  -0.2730867863 -0.3825092316 18.44508171
rfoot  1.236399531 -20.76264381 -36.5021286
rtoes  3.882701469 19.63465326 -101.4190174
lfemur  -4.594338417 -16.3262043 -21.19425964
ltibia  4.740696907 -0.09014692158 10.63176537
lfoot  0.2780767679 -23.41329002 35.85865784
ltoes  -8.566914585 -18.14057534 -115.819829
291
root  34.79503421 36.54836519 -14.43521244 8.271315575 -3.419513226 3.123175144
lowerback  -8.09512043 -0.6977680326 -1.012250185
upperback  -3.865910053 -0.3723039925 -3.566469908
thorax  0.5250899792 -0.01632340066 -3.143929958
lowerneck  -7.977660179 -13.06669998 -10.21010017
upperneck  12.17640018 -17.79049873 10.87469959
head  6.925115108 -8.262219429 3.348765373
lclavicle  0 -4.497500157e-015 -2.743230041e-014
lhumerus  -47.91189957 30.67130089 63.17150116
lradius  -0.05420509726 -6.507048965e-006 30.22360039
lwrist  3.192251654e-007 -3.790274832e-007 -27.5732975
lhand  -4.390971405e-031 -36.46900177 -10.60270023
lfingers  90 7.125020027 -90
lthumb  94.59940586 -25.45479592 100.6016721
rclavicle  0 -4.497500157e-015 -2.743230041e-014
rhumerus  -55.06280136 -28.10080147 -49.56489563
rradius  -5.16745672e-007 2.214343908e-008 84.37879944
rwrist  0.0003490542294 -0.002273720223 -175.9909973
rhand  -1.769504725e-031 3.825269938 -5.097290039
rfingers  -90 -7.125020027 -90
rthumb  -83.97874277 -10.60948621 -60.19151198
rfemur  -9.954087257 15.64464951 13.53302574
rtibia  -0.2636089921 -0.3896403015 18.45248413
rfoot  1.235772848 -20.78845024 -36.46317291
rtoes  3.874443094 19.63622256 -101.3944414
lfemur  -4.730322361 -16.30856133 -21.12363052
ltibia  4.644927502 -0.06583768874 10.7834301
lfoot  0.271466434 -23.52316284 35.83702469
ltoes  -8.554536812 -18.14626147 -115.7800797
292
root  34.79644896 36.54941949 -14.43484599 8.296689987 -3.474615574 3.109057903
lowerback  -8.088160515 -0.7010137439 -1.00684011
upperback  -3.87658 -0.3787469864 -3.552360058
thorax  0.5099890232 -0.0197614003 -3.132770061
lowerneck  -7.938720226 -13.03709984 -10.14529991
upperneck  12.1843996 -17.75299835 10.83349991
head  6.910881042 -8.245872498 3.331242085
lclavicle  0 -4.497500157e-015 -2.743230041e-014
lhumerus  -47.96060181 30.74740028 63.07220078
lradius  -0.05232099816 -6.507048965e-006 30.2105999
lwrist  3.192251654e-007 -3.790274832e-007 -27.78310013
lhand  -0 -36.45040131 -10.60550022
lfingers  90 7.125020027 -90
lthumb  94.59130475 -25.45819728 100.5820529
rclavicle  0 -4.497500157e-015 -2.743230041e-014
rhumerus  -54.96559906 -28.14769936 -50.03939819
rradius  -5.16745672e-007 2.214343908e-008 83.33460236
rwrist  0.0003490542294 -0.002273720223 -175.3200073
rhand  -1.769468466e-031 3.807670116 -4.695040226
rfingers  -90 -7.125020027 -90
rthumb  -83.7797473 -10.95780014 -60.17068882
rfemur  -10.01361084 15.71636009 13.52707291
rtibia  -0.2608852983 -0.3632360101 18.48304939
rfoot  1.221835256 -20.74728394 -36.48341751
rtoes  3.869032132 19.63724889 -101.37834
lfemur  -4.725888729 -16.2595768 -21.12043953
ltibia  4.654008389 -0.04879561439 10.75155163
lfoot  0.2770073116 -23.53929138 35.86772537
ltoes  -8.575013574 -18.13684925 -115.8458441
293
root  34.7963228 36.54811589 -14.43360697 8.281617165 -3.532934904 3.094499111
lowerback  -8.112620354 -0.7025195956 -0.9713891745
upperback  -3.896939993 -0.3770509958 -3.553970098
thorax  0.5021359921 -0.0186324995 -3.154520035
lowerneck  -7.914659977 -13.01539993 -10.07219982
upperneck  12.19040012 -17.72590256 10.78639984
head  6.893407822 -8.233283997 3.312859058
lclavicle  0 -4.497500157e-015 -2.743230041e-014
lhumerus  -48.00059891 30.81450081 62.94110107
lradius  -0.05045096576 -6.507048965e-006 30.18300247
lwrist  3.192251654e-007 -3.790274832e-007 -28.03269768
lhand  -4.385901518e-031 -36.37929916 -10.68710041
lfingers  90 7.125020027 -90
lthumb  94.57459891 -25.540752 100.5131587
rclavicle  0 -4.497500157e-015 -2.743230041e-014
rhumerus  -54.9197998 -28.40550232 -50.45169449
rradius  -5.16745672e-007 2.214343908e-008 82.21130371
rwrist  0.0003490542294 -0.002273720223 -174.7279968
rhand  -1.770005545e-031 4.060510159 -5.005809784
rfingers  -90 -7.125020027 -90
rthumb  -83.87027243 -10.69916081 -59.9519694
rfemur  -10.00479126 15.73253059 13.53570557
rtibia  -0.2480176836 -0.3629712164 18.48095131
rfoot  1.236044645 -20.77100372 -36.42531204
rtoes  3.863158045 19.63836137 -101.3608614
lfemur  -4.698527336 -16.14827728 -21.10936546
ltibia  4.655152798 -0.02594055794 10.73585796
lfoot  0.2841469347 -23.5843029 35.86301422
ltoes  -8.568016355 -18.14006871 -115.8233677
294
root  34.78628144 36.54613645 -14.43063631 8.36258316 -3.525871754 3.107413292
lowerback  -8.021579742 -0.703861773 -0.8384154439
upperback  -3.889499903 -0.4167259932 -3.545150042
thorax  0.4563519955 -0.04252909869 -3.222919941
lowerneck  -7.931779861 -12.98810005 -10.08100033
upperneck  12.2244997 -17.68369865 10.75360012
head  6.892300129 -8.21339035 3.315119982
lclavicle  0 -4.497500157e-015 -2.743230041e-014
lhumerus  -48.02819824 30.44020081 63.17639923
lradius  -0.04858635366 -6.507048965e-006 30.49180031
lwrist  3.192251654e-007 -3.790274832e-007 -27.74440002
lhand  -0 -36.34569931 -10.66759968
lfingers  90 7.125020027 -90
lthumb  94.55495844 -25.52278053 100.4755595
rclavicle  0 -4.497500157e-015 -2.743230041e-014
rhumerus  -54.76860046 -28.4701004 -50.8893013
rradius  -5.16745672e-007 2.214343908e-008 81.07689667
rwrist  0.0003490542294 -0.002273720223 -173.8159943
rhand  -0 3.965660095 -4.691810131
rfingers  -90 -7.125020027 -90
rthumb  -83.73572903 -10.96697402 -60.01514695
rfemur  -10.13023281 15.71440125 13.52436352
rtibia  -0.2682254016 -0.3598430157 18.56726456
rfoot  1.206015229 -20.77389526 -36.40359116
rtoes  3.873909414 19.63632385 -101.3928533
lfemur  -4.689737797 -16.11623383 -21.13676071
ltibia  4.740940571 -0.009806098416 10.58077431
lfoot  0.2671509087 -23.52070236 35.81793594
ltoes  -8.568534786 -18.13983029 -115.8250329
